<mxfile host="app.diagrams.net" modified="2025-01-18T13:42:00.583Z" agent="Mozilla/5.0 (Windows NT 10.0; Win64; x64) AppleWebKit/537.36 (KHTML, like Gecko) Chrome/130.0.0.0 Safari/537.36 OPR/115.0.0.0" etag="G3QUZUAyIaXqdGtJgFzl" version="24.3.1" type="github">
  <diagram name="Strona-1" id="MhJ1z771hjvpKA22VHws">
    <mxGraphModel dx="1140" dy="669" grid="1" gridSize="10" guides="1" tooltips="1" connect="1" arrows="1" fold="1" page="1" pageScale="1" pageWidth="827" pageHeight="1169" math="0" shadow="0">
      <root>
        <mxCell id="0" />
        <mxCell id="1" parent="0" />
        <mxCell id="7FN_Vs3tJUfmW7cGbn9N-18" value="" style="rounded=1;whiteSpace=wrap;html=1;" vertex="1" parent="1">
          <mxGeometry width="520" height="290" as="geometry" />
        </mxCell>
        <mxCell id="7FN_Vs3tJUfmW7cGbn9N-21" value="&lt;b&gt;&lt;font style=&quot;font-size: 15px;&quot;&gt;PowerManager Task&lt;/font&gt;&lt;/b&gt;" style="text;html=1;align=center;verticalAlign=middle;whiteSpace=wrap;rounded=0;" vertex="1" parent="1">
          <mxGeometry x="10" y="20" width="170" height="20" as="geometry" />
        </mxCell>
        <mxCell id="7FN_Vs3tJUfmW7cGbn9N-25" value="" style="edgeStyle=orthogonalEdgeStyle;rounded=0;orthogonalLoop=1;jettySize=auto;html=1;" edge="1" parent="1" source="7FN_Vs3tJUfmW7cGbn9N-23" target="7FN_Vs3tJUfmW7cGbn9N-24">
          <mxGeometry relative="1" as="geometry" />
        </mxCell>
        <mxCell id="7FN_Vs3tJUfmW7cGbn9N-23" value="Sprawdzanie poziomu akumulatora / aktualizacja stanu" style="rounded=1;whiteSpace=wrap;html=1;" vertex="1" parent="1">
          <mxGeometry x="20" y="80" width="120" height="60" as="geometry" />
        </mxCell>
        <mxCell id="7FN_Vs3tJUfmW7cGbn9N-27" value="" style="edgeStyle=orthogonalEdgeStyle;rounded=0;orthogonalLoop=1;jettySize=auto;html=1;" edge="1" parent="1" source="7FN_Vs3tJUfmW7cGbn9N-24" target="7FN_Vs3tJUfmW7cGbn9N-26">
          <mxGeometry relative="1" as="geometry" />
        </mxCell>
        <mxCell id="7FN_Vs3tJUfmW7cGbn9N-24" value="Sprawdzanie poprawności działania przetwornic" style="whiteSpace=wrap;html=1;rounded=1;" vertex="1" parent="1">
          <mxGeometry x="190" y="80" width="120" height="60" as="geometry" />
        </mxCell>
        <mxCell id="7FN_Vs3tJUfmW7cGbn9N-30" value="" style="edgeStyle=orthogonalEdgeStyle;rounded=0;orthogonalLoop=1;jettySize=auto;html=1;" edge="1" parent="1" source="7FN_Vs3tJUfmW7cGbn9N-26" target="7FN_Vs3tJUfmW7cGbn9N-29">
          <mxGeometry relative="1" as="geometry">
            <Array as="points">
              <mxPoint x="410" y="230" />
            </Array>
          </mxGeometry>
        </mxCell>
        <mxCell id="7FN_Vs3tJUfmW7cGbn9N-26" value="Obsługa stanu naładowania akumulatora" style="whiteSpace=wrap;html=1;rounded=1;" vertex="1" parent="1">
          <mxGeometry x="350" y="80" width="120" height="60" as="geometry" />
        </mxCell>
        <mxCell id="7FN_Vs3tJUfmW7cGbn9N-33" style="edgeStyle=orthogonalEdgeStyle;rounded=0;orthogonalLoop=1;jettySize=auto;html=1;exitX=0;exitY=0.5;exitDx=0;exitDy=0;entryX=0.5;entryY=1;entryDx=0;entryDy=0;" edge="1" parent="1" source="7FN_Vs3tJUfmW7cGbn9N-29" target="7FN_Vs3tJUfmW7cGbn9N-23">
          <mxGeometry relative="1" as="geometry" />
        </mxCell>
        <mxCell id="7FN_Vs3tJUfmW7cGbn9N-29" value="Sprawdzanie podłączenia silników" style="whiteSpace=wrap;html=1;rounded=1;" vertex="1" parent="1">
          <mxGeometry x="190" y="200" width="120" height="60" as="geometry" />
        </mxCell>
        <mxCell id="7FN_Vs3tJUfmW7cGbn9N-42" value="" style="rounded=1;whiteSpace=wrap;html=1;textShadow=1;dashed=1;" vertex="1" parent="1">
          <mxGeometry x="260" y="312" width="246" height="188" as="geometry" />
        </mxCell>
        <mxCell id="7FN_Vs3tJUfmW7cGbn9N-43" value="" style="group" vertex="1" connectable="0" parent="1">
          <mxGeometry y="310" width="250" height="430" as="geometry" />
        </mxCell>
        <mxCell id="7FN_Vs3tJUfmW7cGbn9N-37" value="" style="rounded=1;whiteSpace=wrap;html=1;dashed=1;container=0;" vertex="1" parent="7FN_Vs3tJUfmW7cGbn9N-43">
          <mxGeometry width="250" height="429.99999999999994" as="geometry" />
        </mxCell>
        <mxCell id="7FN_Vs3tJUfmW7cGbn9N-2" value="STAN KRYTYCZNY&lt;div style=&quot;text-align: left;&quot;&gt;- cykliczna sygnalizacja buzzerem&lt;/div&gt;&lt;div style=&quot;text-align: left;&quot;&gt;- notyfikacje&lt;/div&gt;&lt;div style=&quot;text-align: left;&quot;&gt;- wyłączenie przetwornic&lt;/div&gt;" style="rounded=1;whiteSpace=wrap;html=1;container=0;" vertex="1" parent="7FN_Vs3tJUfmW7cGbn9N-43">
          <mxGeometry x="32" y="335.6112543554006" width="186" height="81.80487804878048" as="geometry" />
        </mxCell>
        <mxCell id="7FN_Vs3tJUfmW7cGbn9N-5" value="STAN NISKI&lt;div&gt;akcje:&lt;/div&gt;&lt;div style=&quot;text-align: left;&quot;&gt;- cykliczna sygnalizacja buzzerem&lt;/div&gt;&lt;div style=&quot;text-align: left;&quot;&gt;- notyfikacja&lt;/div&gt;" style="rounded=1;whiteSpace=wrap;html=1;container=0;" vertex="1" parent="7FN_Vs3tJUfmW7cGbn9N-43">
          <mxGeometry x="32" y="241.21801393728228" width="186" height="81.80487804878048" as="geometry" />
        </mxCell>
        <mxCell id="7FN_Vs3tJUfmW7cGbn9N-7" value="STAN NORMALNY&lt;div&gt;akcje:&lt;/div&gt;&lt;div&gt;brak&lt;/div&gt;" style="rounded=1;whiteSpace=wrap;html=1;container=0;" vertex="1" parent="7FN_Vs3tJUfmW7cGbn9N-43">
          <mxGeometry x="32" y="143.15404181184664" width="186" height="81.80487804878048" as="geometry" />
        </mxCell>
        <mxCell id="7FN_Vs3tJUfmW7cGbn9N-8" value="STAN WYSOKI&lt;div style=&quot;font-size: 10px;&quot;&gt;akcje:&lt;/div&gt;&lt;div style=&quot;font-size: 10px;&quot;&gt;brak&lt;/div&gt;" style="rounded=1;whiteSpace=wrap;html=1;container=0;" vertex="1" parent="7FN_Vs3tJUfmW7cGbn9N-43">
          <mxGeometry x="32" y="52.44202090592338" width="186" height="81.80487804878048" as="geometry" />
        </mxCell>
        <mxCell id="7FN_Vs3tJUfmW7cGbn9N-41" value="&lt;span style=&quot;color: rgb(0, 0, 0); font-family: Helvetica; font-size: 17px; font-style: normal; font-variant-ligatures: normal; font-variant-caps: normal; letter-spacing: normal; orphans: 2; text-indent: 0px; text-transform: none; widows: 2; word-spacing: 0px; -webkit-text-stroke-width: 0px; white-space: normal; background-color: rgb(251, 251, 251); text-decoration-thickness: initial; text-decoration-style: initial; text-decoration-color: initial; float: none; display: inline !important;&quot;&gt;Obsługa stanu akumulatora&lt;/span&gt;" style="text;whiteSpace=wrap;html=1;align=center;fontSize=17;fontStyle=1" vertex="1" parent="7FN_Vs3tJUfmW7cGbn9N-43">
          <mxGeometry x="10" y="10.48780487804878" width="230" height="41.95121951219512" as="geometry" />
        </mxCell>
        <mxCell id="7FN_Vs3tJUfmW7cGbn9N-44" value="&lt;div style=&quot;text-align: center;&quot;&gt;&lt;span style=&quot;font-size: 17px;&quot;&gt;&lt;b&gt;Poprawność działania przetwornic buck&lt;/b&gt;&lt;/span&gt;&lt;/div&gt;&lt;div style=&quot;text-align: center;&quot;&gt;&lt;span style=&quot;font-size: 17px;&quot;&gt;&lt;b&gt;&lt;br&gt;&lt;/b&gt;&lt;/span&gt;&lt;/div&gt;" style="text;whiteSpace=wrap;html=1;" vertex="1" parent="1">
          <mxGeometry x="266" y="322" width="230" height="40" as="geometry" />
        </mxCell>
        <mxCell id="7FN_Vs3tJUfmW7cGbn9N-55" value="OPIS DZIAŁANIA:&lt;div&gt;- Jeśli przetwornica jest włączona sprawdź napięcie.&lt;/div&gt;&lt;div&gt;- Jeśli napięcie jest niepoprawne, zinkrementuj licznik, w przeciwnym wypadku wyzeruj&lt;/div&gt;&lt;div&gt;- Jeśli licznik przekroczy założoną wartość zgłoś błąd&lt;/div&gt;" style="text;html=1;align=left;verticalAlign=middle;whiteSpace=wrap;rounded=0;" vertex="1" parent="1">
          <mxGeometry x="296" y="372" width="190" height="130" as="geometry" />
        </mxCell>
        <mxCell id="7FN_Vs3tJUfmW7cGbn9N-57" value="" style="rounded=1;whiteSpace=wrap;html=1;textShadow=1;dashed=1;" vertex="1" parent="1">
          <mxGeometry x="260" y="510" width="246" height="227" as="geometry" />
        </mxCell>
        <mxCell id="7FN_Vs3tJUfmW7cGbn9N-58" value="&lt;div style=&quot;text-align: center;&quot;&gt;&lt;span style=&quot;font-size: 17px;&quot;&gt;&lt;b&gt;SPRAWDZANIE PODŁĄCZENIA SILNIKÓW&lt;/b&gt;&lt;/span&gt;&lt;/div&gt;" style="text;whiteSpace=wrap;html=1;" vertex="1" parent="1">
          <mxGeometry x="266" y="510" width="230" height="47" as="geometry" />
        </mxCell>
        <mxCell id="7FN_Vs3tJUfmW7cGbn9N-59" value="OPIS DZIAŁANIA:&lt;div&gt;- Jeśli sterowanie na silnik jest odpowiednio duże, wykonaj pomiar prądu.&lt;/div&gt;&lt;div&gt;- Jeśli zmierzony prąd jest istotnie za mały to zinkrementuj licznik debouncingu, w przeciwnym wypadku wyzeruj.&lt;/div&gt;&lt;div&gt;- W przypadku zmiany stanu wyślij notyfikacje o podłączeniu/odłączeniu silnika&lt;/div&gt;" style="text;html=1;align=left;verticalAlign=middle;whiteSpace=wrap;rounded=0;" vertex="1" parent="1">
          <mxGeometry x="284" y="570" width="194" height="160" as="geometry" />
        </mxCell>
      </root>
    </mxGraphModel>
  </diagram>
</mxfile>
